<svg width="22" height="22" viewBox="0 0 22 22" fill="none" xmlns="http://www.w3.org/2000/svg">
<path d="M11.08 14.6644C13.2888 14.6644 15.0794 12.8738 15.0794 10.665C15.0794 8.4562 13.2888 6.66562 11.08 6.66562C8.87121 6.66562 7.08063 8.4562 7.08063 10.665C7.08063 12.8738 8.87121 14.6644 11.08 14.6644Z" stroke="black" stroke-width="2" stroke-linecap="round" stroke-linejoin="round"/>
<path d="M16.8624 6.72395C17.063 7.01113 17.2386 7.31498 17.3873 7.63214L19.5453 8.83196C19.8148 10.0388 19.8176 11.29 19.5536 12.498L17.3873 13.6979C17.2386 14.015 17.063 14.3189 16.8624 14.6061L16.9041 17.0807C15.9895 17.9141 14.9071 18.5419 13.7296 18.922L11.6049 17.6472C11.2554 17.6722 10.9045 17.6722 10.555 17.6472L8.43871 18.9137C7.25749 18.5405 6.17148 17.9151 5.25588 17.0807L5.29754 14.6144C5.09863 14.3232 4.92311 14.0168 4.77262 13.6979L2.61462 12.498C2.34517 11.2912 2.34232 10.04 2.60629 8.83196L4.77262 7.63214C4.92133 7.31498 5.09695 7.01113 5.29754 6.72395L5.25588 4.24934C6.17044 3.41594 7.25288 2.78807 8.43038 2.40796L10.555 3.68276C10.9045 3.65776 11.2554 3.65776 11.6049 3.68276L13.7212 2.41629C14.9024 2.78948 15.9885 3.41493 16.9041 4.24934L16.8624 6.72395Z" stroke="black" stroke-width="2" stroke-linecap="round" stroke-linejoin="round"/>
</svg>
