<svg width="23" height="23" viewBox="0 0 23 23" fill="none" xmlns="http://www.w3.org/2000/svg">
<path d="M13.5 18.1667V14.1667C13.5 13.9899 13.4298 13.8203 13.3047 13.6953C13.1797 13.5702 13.0101 13.5 12.8333 13.5H10.1667C9.98985 13.5 9.82028 13.5702 9.69525 13.6953C9.57023 13.8203 9.49999 13.9899 9.49999 14.1667V18.1667C9.49999 18.3435 9.42975 18.5131 9.30473 18.6381C9.1797 18.7631 9.01013 18.8333 8.83332 18.8333H4.83332C4.65651 18.8333 4.48694 18.7631 4.36192 18.6381C4.23689 18.5131 4.16666 18.3435 4.16666 18.1667V10.4583C4.16815 10.3661 4.18809 10.275 4.2253 10.1906C4.26251 10.1062 4.31624 10.03 4.38332 9.96667L11.05 3.90834C11.1729 3.79591 11.3334 3.73355 11.5 3.73355C11.6666 3.73355 11.8271 3.79591 11.95 3.90834L18.6167 9.96667C18.6837 10.03 18.7375 10.1062 18.7747 10.1906C18.8119 10.275 18.8318 10.3661 18.8333 10.4583V18.1667C18.8333 18.3435 18.7631 18.5131 18.6381 18.6381C18.513 18.7631 18.3435 18.8333 18.1667 18.8333H14.1667C13.9898 18.8333 13.8203 18.7631 13.6953 18.6381C13.5702 18.5131 13.5 18.3435 13.5 18.1667Z" stroke="black" stroke-width="2" stroke-linecap="round" stroke-linejoin="round"/>
</svg>
