<svg width="22" height="22" viewBox="0 0 22 22" fill="none" xmlns="http://www.w3.org/2000/svg">
<path d="M10.4901 3.10369L2.60802 17.1765C2.54253 17.295 2.5147 17.4307 2.52824 17.5655C2.54178 17.7002 2.59604 17.8276 2.68381 17.9308C2.77157 18.0339 2.88866 18.1079 3.01951 18.1428C3.15035 18.1778 3.28873 18.172 3.41622 18.1263L10.8484 15.4768C10.9927 15.4184 11.154 15.4184 11.2983 15.4768L18.7305 18.1263C18.858 18.172 18.9964 18.1778 19.1272 18.1428C19.2581 18.1079 19.3752 18.0339 19.4629 17.9308C19.5507 17.8276 19.6049 17.7002 19.6185 17.5655C19.632 17.4307 19.6042 17.295 19.5387 17.1765L11.6566 3.10369C11.599 2.99951 11.5145 2.91266 11.4119 2.85219C11.3093 2.79172 11.1924 2.75983 11.0734 2.75983C10.9543 2.75983 10.8374 2.79172 10.7348 2.85219C10.6323 2.91266 10.5478 2.99951 10.4901 3.10369Z" stroke="black" stroke-width="2" stroke-linecap="round" stroke-linejoin="round"/>
<path d="M11.0733 15.3934V10.0609" stroke="black" stroke-width="2" stroke-linecap="round" stroke-linejoin="round"/>
</svg>
