<svg width="12" height="12" viewBox="0 0 12 12" fill="none" xmlns="http://www.w3.org/2000/svg">
<path d="M3 7.5C3.82843 7.5 4.5 6.82843 4.5 6C4.5 5.17157 3.82843 4.5 3 4.5C2.17157 4.5 1.5 5.17157 1.5 6C1.5 6.82843 2.17157 7.5 3 7.5Z" stroke="black" stroke-linecap="round" stroke-linejoin="round"/>
<path d="M8.25 10.875C9.07843 10.875 9.75 10.2034 9.75 9.375C9.75 8.54657 9.07843 7.875 8.25 7.875C7.42157 7.875 6.75 8.54657 6.75 9.375C6.75 10.2034 7.42157 10.875 8.25 10.875Z" stroke="black" stroke-linecap="round" stroke-linejoin="round"/>
<path d="M8.25 4.125C9.07843 4.125 9.75 3.45343 9.75 2.625C9.75 1.79657 9.07843 1.125 8.25 1.125C7.42157 1.125 6.75 1.79657 6.75 2.625C6.75 3.45343 7.42157 4.125 8.25 4.125Z" stroke="black" stroke-linecap="round" stroke-linejoin="round"/>
<path d="M6.98905 3.43594L4.26093 5.18907" stroke="black" stroke-linecap="round" stroke-linejoin="round"/>
<path d="M4.26093 6.81094L6.98905 8.56407" stroke="black" stroke-linecap="round" stroke-linejoin="round"/>
</svg>
