<svg width="24" height="24" viewBox="0 0 24 24" fill="none" xmlns="http://www.w3.org/2000/svg">
<path d="M20.25 10.5V6" stroke="black" stroke-width="2" stroke-linecap="round" stroke-linejoin="round"/>
<path d="M22.5 8.25H18" stroke="black" stroke-width="2" stroke-linecap="round" stroke-linejoin="round"/>
<path d="M15.75 2.25V5.25" stroke="black" stroke-width="2" stroke-linecap="round" stroke-linejoin="round"/>
<path d="M17.25 3.75H14.25" stroke="black" stroke-width="2" stroke-linecap="round" stroke-linejoin="round"/>
<path d="M20.3157 14.3063C18.8432 14.7192 17.2874 14.7327 15.8079 14.3455C14.3284 13.9582 12.9787 13.1842 11.8973 12.1028C10.816 11.0214 10.0419 9.67169 9.65466 8.19222C9.26742 6.71276 9.28095 5.15689 9.69386 3.68439C8.24211 4.08846 6.92156 4.86584 5.86375 5.93911C4.80593 7.01237 4.04778 8.34405 3.66479 9.80151C3.28181 11.259 3.28736 12.7913 3.6809 14.246C4.07444 15.7006 4.84223 17.0268 5.9078 18.0923C6.97336 19.1579 8.29951 19.9257 9.75415 20.3192C11.2088 20.7128 12.7412 20.7183 14.1986 20.3353C15.6561 19.9523 16.9878 19.1942 18.061 18.1364C19.1343 17.0786 19.9117 15.758 20.3157 14.3063V14.3063Z" stroke="black" stroke-width="2" stroke-linecap="round" stroke-linejoin="round"/>
</svg>
