<svg width="68" height="68" viewBox="0 0 68 68" fill="none" xmlns="http://www.w3.org/2000/svg">
<path d="M34 27.625V38.25" stroke="#FF3D00" stroke-width="4" stroke-linecap="round" stroke-linejoin="round"/>
<path d="M30.3344 10.6249L6.95942 50.9999C6.58704 51.6449 6.39068 52.3764 6.39002 53.1212C6.38936 53.866 6.58442 54.5978 6.95566 55.2435C7.32691 55.8891 7.8613 56.4259 8.50529 56.7999C9.14929 57.174 9.88029 57.3723 10.625 57.3749H57.375C58.1198 57.3723 58.8508 57.174 59.4948 56.7999C60.1388 56.4259 60.6732 55.8891 61.0444 55.2435C61.4157 54.5978 61.6107 53.866 61.6101 53.1212C61.6094 52.3764 61.4131 51.6449 61.0407 50.9999L37.6657 10.6249C37.2961 9.97912 36.7624 9.44241 36.1187 9.06913C35.475 8.69586 34.7441 8.49927 34 8.49927C33.2559 8.49927 32.5251 8.69586 31.8814 9.06913C31.2377 9.44241 30.704 9.97912 30.3344 10.6249V10.6249Z" stroke="#FF3D00" stroke-width="4" stroke-linecap="round" stroke-linejoin="round"/>
<path d="M34 51C35.7604 51 37.1875 49.5729 37.1875 47.8125C37.1875 46.0521 35.7604 44.625 34 44.625C32.2396 44.625 30.8125 46.0521 30.8125 47.8125C30.8125 49.5729 32.2396 51 34 51Z" fill="#FF3D00"/>
</svg>
