<svg width="22" height="22" viewBox="0 0 22 22" fill="none" xmlns="http://www.w3.org/2000/svg">
<path d="M11.2566 18.2888L19.1387 4.216C19.2041 4.09746 19.232 3.96178 19.2184 3.82703C19.2049 3.69228 19.1506 3.56485 19.0629 3.46171C18.9751 3.35857 18.858 3.28461 18.7272 3.24967C18.5963 3.21473 18.4579 3.22048 18.3305 3.26614L10.8983 5.91573C10.754 5.9741 10.5926 5.9741 10.4483 5.91573L3.01618 3.26614C2.88868 3.22048 2.7503 3.21473 2.61946 3.24967C2.48861 3.28461 2.37152 3.35857 2.28376 3.46171C2.19599 3.56485 2.14173 3.69228 2.12819 3.82703C2.11465 3.96178 2.14248 4.09745 2.20797 4.21599L10.0901 18.2888C10.1477 18.393 10.2322 18.4798 10.3348 18.5403C10.4373 18.6008 10.5542 18.6327 10.6733 18.6327C10.7924 18.6327 10.9093 18.6008 11.0118 18.5403C11.1144 18.4798 11.1989 18.393 11.2566 18.2888Z" stroke="black" stroke-width="2" stroke-linecap="round" stroke-linejoin="round"/>
<path d="M10.6733 5.99904L10.6733 11.3315" stroke="black" stroke-width="2" stroke-linecap="round" stroke-linejoin="round"/>
</svg>
